<?xml version="1.0" encoding="UTF-8"?>
<svg id="Layer_1" data-name="Layer 1" xmlns="http://www.w3.org/2000/svg" viewBox="0 0 705.46 121.03">
  <defs>
    <style>
      .cls-1 {
        fill: #0b1e54;
      }

      .cls-2 {
        fill: #1e6fff;
      }
    </style>
  </defs>
  <g>
    <polygon class="cls-2" points="24.01 60.51 74.9 111.4 65.28 121.03 4.76 60.51 65.28 0 74.9 9.62 24.01 60.51"/>
    <polygon class="cls-1" points="157.59 60.51 97.07 121.03 84.24 108.19 36.56 60.51 97.07 0 157.59 60.51"/>
    <rect class="cls-2" x="84.46" y="47.91" width="25.21" height="25.21" transform="translate(-14.36 86.36) rotate(-45)"/>
    <rect class="cls-2" x="162.8" y="47.91" width="25.21" height="25.21" transform="translate(8.58 141.75) rotate(-45)"/>
    <path class="cls-2" d="m99.52,45.14c3.02,2.77,16.11,14.12,36.26,14.29,20.78.17,34.31-11.67,37.23-14.34-.1,10.18-.21,20.36-.31,30.54-3.02-2.71-16.44-14.14-36.92-13.97-20.05.17-33.1,11.36-36.17,14.14-.03-10.22-.06-20.44-.09-30.66Z"/>
  </g>
  <g>
    <path class="cls-1" d="m225.47,97.6V18.83h12.79v78.77h-12.79Zm10.66,0v-11.83h17.8c4.33,0,8.21-.69,11.62-2.08,3.41-1.39,6.32-3.32,8.74-5.81s4.25-5.42,5.49-8.79c1.24-3.38,1.87-7.02,1.87-10.93,0-4.19-.62-7.96-1.87-11.3-1.24-3.34-3.07-6.22-5.49-8.63-2.42-2.41-5.33-4.28-8.74-5.6-3.41-1.31-7.28-1.97-11.62-1.97h-17.8v-11.83h16.73c7.04,0,13.16,1.07,18.39,3.2,5.22,2.13,9.58,5.01,13.06,8.63,3.48,3.62,6.08,7.71,7.78,12.26,1.71,4.55,2.56,9.24,2.56,14.07v2.34c0,4.55-.85,9.11-2.56,13.7-1.71,4.58-4.3,8.7-7.78,12.36s-7.83,6.61-13.06,8.85c-5.22,2.24-11.35,3.36-18.39,3.36h-16.73Z"/>
    <path class="cls-1" d="m324.17,98.67c-4.19,0-7.85-.73-10.98-2.18-3.13-1.46-5.54-3.59-7.25-6.4s-2.56-6.16-2.56-10.07c0-4.12.98-7.53,2.93-10.23,1.95-2.7,4.74-4.73,8.37-6.08,3.62-1.35,7.96-2.02,13-2.02h14.39v8.21h-14.71c-3.77,0-6.65.91-8.63,2.72-1.99,1.81-2.98,4.18-2.98,7.09s.99,5.24,2.98,6.98c1.99,1.74,4.87,2.61,8.63,2.61,2.2,0,4.3-.41,6.29-1.23s3.64-2.19,4.96-4.1c1.31-1.92,2.04-4.62,2.19-8.1l3.2,4.16c-.36,4.05-1.33,7.45-2.93,10.18-1.6,2.74-3.8,4.83-6.61,6.29-2.81,1.44-6.23,2.17-10.29,2.17Zm18.66-1.49v-17.16h-2.03v-19.4c0-3.55-.92-6.25-2.77-8.1-1.85-1.85-4.58-2.77-8.21-2.77-1.99,0-4.19.04-6.61.11s-4.78.16-7.09.27c-2.31.11-4.35.23-6.13.37v-10.77c1.56-.14,3.29-.27,5.17-.37,1.88-.11,3.84-.19,5.86-.27,2.03-.07,3.96-.11,5.81-.11,5.83,0,10.66.75,14.5,2.24,3.84,1.49,6.7,3.86,8.58,7.09,1.88,3.23,2.82,7.55,2.82,12.95v35.92h-9.9Z"/>
    <path class="cls-1" d="m362.23,49v-9.27h40.08v9.27h-40.08Zm31.44,48.82c-4.76,0-8.78-.64-12.04-1.92-3.27-1.28-5.74-3.48-7.41-6.61-1.67-3.13-2.5-7.35-2.5-12.68V22.99h11.83v54.68c0,2.98.8,5.28,2.4,6.87,1.6,1.6,3.85,2.4,6.77,2.4h9.59v10.87h-8.64Z"/>
    <path class="cls-1" d="m431.62,98.67c-4.19,0-7.85-.73-10.98-2.18-3.13-1.46-5.54-3.59-7.25-6.4s-2.56-6.16-2.56-10.07c0-4.12.98-7.53,2.93-10.23,1.95-2.7,4.74-4.73,8.37-6.08,3.62-1.35,7.96-2.02,13-2.02h14.39v8.21h-14.71c-3.77,0-6.65.91-8.63,2.72-1.99,1.81-2.98,4.18-2.98,7.09s.99,5.24,2.98,6.98c1.99,1.74,4.87,2.61,8.63,2.61,2.2,0,4.3-.41,6.29-1.23s3.64-2.19,4.96-4.1c1.31-1.92,2.04-4.62,2.19-8.1l3.2,4.16c-.36,4.05-1.33,7.45-2.93,10.18-1.6,2.74-3.8,4.83-6.61,6.29-2.81,1.44-6.24,2.17-10.29,2.17Zm18.65-1.49v-17.16h-2.03v-19.4c0-3.55-.92-6.25-2.77-8.1-1.85-1.85-4.58-2.77-8.21-2.77-1.99,0-4.19.04-6.61.11s-4.78.16-7.09.27c-2.31.11-4.35.23-6.13.37v-10.77c1.56-.14,3.29-.27,5.17-.37,1.88-.11,3.84-.19,5.86-.27,2.03-.07,3.96-.11,5.81-.11,5.83,0,10.66.75,14.5,2.24,3.84,1.49,6.7,3.86,8.58,7.09,1.88,3.23,2.82,7.55,2.82,12.95v35.92h-9.9Z"/>
  </g>
  <g>
    <path class="cls-1" d="m475.76,97.18V19.37h8.1v77.81h-8.1Zm5.97,0v-7.35h36.56v7.35h-36.56Z"/>
    <path class="cls-1" d="m546.64,98.67c-3.98,0-7.5-.71-10.55-2.13-3.06-1.42-5.42-3.48-7.09-6.18-1.67-2.7-2.5-5.97-2.5-9.81s.87-6.96,2.61-9.59c1.74-2.63,4.26-4.64,7.57-6.02,3.3-1.39,7.3-2.08,11.99-2.08h16.52v6.08h-17.05c-4.48,0-7.91,1.08-10.29,3.25-2.38,2.17-3.57,4.99-3.57,8.47s1.24,6.38,3.73,8.47c2.49,2.1,5.86,3.15,10.13,3.15,2.63,0,5.15-.48,7.57-1.44,2.41-.96,4.44-2.59,6.08-4.9,1.63-2.31,2.52-5.49,2.66-9.54l2.35,3.3c-.28,4.19-1.28,7.69-2.98,10.5-1.71,2.81-4.02,4.92-6.93,6.34-2.93,1.42-6.34,2.13-10.25,2.13Zm19.08-1.49v-16.95h-1.28v-20.04c0-4.19-1.1-7.41-3.3-9.65-2.2-2.24-5.61-3.36-10.23-3.36-2.13,0-4.28.04-6.45.11-2.17.07-4.23.16-6.18.27-1.96.11-3.68.23-5.17.37v-7.03c1.56-.14,3.16-.28,4.8-.43,1.63-.14,3.32-.23,5.06-.27,1.74-.03,3.43-.05,5.06-.05,5.76,0,10.39.71,13.91,2.13s6.09,3.64,7.73,6.66c1.63,3.02,2.45,7.02,2.45,11.99v36.24h-6.4Z"/>
    <path class="cls-1" d="m621.15,98.99c-4.97,0-9.33-1.1-13.06-3.3-3.73-2.2-6.65-5.29-8.74-9.27-2.1-3.98-3.22-8.56-3.36-13.75h2.45v24.52h-6.4V19.38h7.99v38.91l-3.09,7.14c.14-5.68,1.3-10.5,3.46-14.44,2.17-3.94,5.08-6.95,8.74-9.01,3.66-2.06,7.83-3.09,12.52-3.09,4.12,0,7.85.78,11.19,2.34,3.34,1.56,6.2,3.7,8.58,6.4,2.38,2.7,4.19,5.81,5.44,9.33,1.24,3.52,1.87,7.23,1.87,11.14v1.49c0,3.84-.64,7.51-1.92,11.03-1.28,3.52-3.11,6.66-5.49,9.43-2.38,2.77-5.28,4.96-8.69,6.55-3.39,1.59-7.23,2.39-11.49,2.39Zm-.85-7.04c4.26,0,7.92-1.03,10.98-3.09,3.05-2.06,5.4-4.83,7.04-8.31,1.63-3.48,2.45-7.39,2.45-11.72s-.84-8.33-2.5-11.78c-1.67-3.45-4.05-6.16-7.14-8.15-3.09-1.99-6.7-2.99-10.82-2.99-3.84,0-7.32.85-10.45,2.56-3.13,1.71-5.6,4.1-7.41,7.2-1.81,3.09-2.72,6.73-2.72,10.93v5.22c0,3.98.91,7.48,2.72,10.5,1.81,3.02,4.28,5.38,7.41,7.09,3.12,1.69,6.6,2.54,10.44,2.54Z"/>
    <path class="cls-1" d="m682.76,98.78c-7.25,0-12.83-1.58-16.73-4.74-3.91-3.16-5.9-7.41-5.97-12.74h7.46c.14,2.7,1.37,5.15,3.68,7.35,2.31,2.2,6.16,3.31,11.56,3.31,5.04,0,8.83-1.05,11.35-3.15,2.52-2.09,3.78-4.64,3.78-7.62,0-2.77-1.05-4.92-3.14-6.45-2.1-1.53-5.13-2.5-9.11-2.93l-6.4-.64c-5.12-.57-9.26-2.15-12.42-4.74-3.16-2.59-4.74-6.16-4.74-10.71,0-3.34.85-6.25,2.56-8.74,1.71-2.49,4.1-4.42,7.19-5.81s6.73-2.08,10.93-2.08c6.04,0,10.96,1.42,14.76,4.26,3.8,2.84,5.74,6.89,5.81,12.15h-7.46c-.07-2.7-1.21-4.97-3.41-6.82-2.2-1.85-5.44-2.77-9.7-2.77s-7.69.96-9.86,2.88-3.25,4.26-3.25,7.04c0,2.34.82,4.28,2.45,5.81,1.63,1.53,4.19,2.47,7.67,2.82l6.4.64c5.68.64,10.32,2.28,13.91,4.9,3.59,2.63,5.38,6.4,5.38,11.3,0,3.34-.94,6.34-2.82,9.01-1.88,2.66-4.53,4.74-7.94,6.23-3.41,1.49-7.39,2.24-11.94,2.24Z"/>
  </g>
</svg>